<?xml version="1.0" encoding="utf-8"?>
<svg id="master-artboard" viewBox="0 0 1400 980" version="1.1" xmlns="http://www.w3.org/2000/svg" x="0px" y="0px" style="enable-background:new 0 0 336 235.2;" width="1400px" height="980px"><g transform="matrix(5.691056910569106, 0, 0, 5.691056910569106, -173.5772312321129, -386.4227291698194)"><path fill="#FFFFFF" d="M61.316,154.222L50.78,143.705l-10.535,10.517c-2.903,2.904-4.354,6.774-4.354,10.498&#10;&#9;c0,3.722,1.451,7.648,4.354,10.553c2.903,2.903,6.72,4.373,10.535,4.373c3.816,0,7.63-1.47,10.536-4.373&#10;&#9;c2.902-2.904,4.354-6.831,4.354-10.553C65.671,160.996,64.219,157.126,61.316,154.222z M39.612,165.388&#10;&#9;c0.018-3.722,1.156-6.087,3.275-8.188l7.893-8.06l7.894,8.152c2.12,2.083,3.256,4.373,3.274,8.095H39.612z"/><text class="single-line-text" dominant-baseline="text-before-edge" style="font-size: 70px; white-space: pre; fill: rgb(255, 255, 255); font-family: 'Myriad Pro'; color: rgb(255, 255, 255);" transform="matrix(1 0 0 1 71.5 177.5)" y="-62">API</text></g><path d="M 87.12582397460938 476.1843566894531 L 77.57582092285156 476.1843566894531 L 77.57582092285156 459.0543518066406 L 87.12582397460938 459.0543518066406 L 87.12582397460938 460.8243713378906 L 79.5658187866211 460.8243713378906 L 79.5658187866211 466.3443603515625 L 86.66581726074219 466.3443603515625 L 86.66581726074219 468.0943603515625 L 79.5658187866211 468.0943603515625 L 79.5658187866211 474.40435791015625 L 87.12582397460938 474.40435791015625 L 87.12582397460938 476.1843566894531 ZM 99.41033935546875 476.1843566894531 L 99.41033935546875 467.8743591308594 C 99.41033935546875 466.82769775390625 99.17367553710938 466.0476989746094 98.7003402709961 465.53436279296875 C 98.2203369140625 465.01434326171875 97.47367095947266 464.7543640136719 96.46034240722656 464.7543640136719 C 95.11367797851562 464.7543640136719 94.13034057617188 465.11767578125 93.51033782958984 465.8443603515625 C 92.88367462158203 466.5710144042969 92.57034301757812 467.7710266113281 92.57034301757812 469.4443664550781 L 92.57034301757812 476.1843566894531 L 90.6203384399414 476.1843566894531 L 90.6203384399414 463.3443603515625 L 92.2003402709961 463.3443603515625 L 92.52033996582031 465.0943603515625 L 92.61034393310547 465.0943603515625 C 93.01033782958984 464.4610290527344 93.57034301757812 463.97100830078125 94.29034423828125 463.6243591308594 C 95.01033782958984 463.2776794433594 95.81034088134766 463.1043701171875 96.69033813476562 463.1043701171875 C 98.23700714111328 463.1043701171875 99.40367126464844 463.4776916503906 100.19033813476562 464.224365234375 C 100.9703369140625 464.97100830078125 101.36034393310547 466.16436767578125 101.36034393310547 467.8043518066406 L 101.36034393310547 476.1843566894531 L 99.41033935546875 476.1843566894531 ZM 109.49734497070312 474.8143615722656 C 109.84400939941406 474.8143615722656 110.1773452758789 474.7876892089844 110.49734497070312 474.7343444824219 C 110.81734466552734 474.68768310546875 111.0706787109375 474.6343688964844 111.2573471069336 474.5743713378906 L 111.2573471069336 476.0643615722656 C 111.04401397705078 476.1710205078125 110.7340087890625 476.2543640136719 110.32734680175781 476.3143615722656 C 109.91400909423828 476.3810119628906 109.54401397705078 476.41436767578125 109.21734619140625 476.41436767578125 C 106.73068237304688 476.41436767578125 105.48734283447266 475.1076965332031 105.48734283447266 472.4943542480469 L 105.48734283447266 464.8543701171875 L 103.64734649658203 464.8543701171875 L 103.64734649658203 463.91436767578125 L 105.48734283447266 463.1043701171875 L 106.30734252929688 460.3643493652344 L 107.43734741210938 460.3643493652344 L 107.43734741210938 463.3443603515625 L 111.16734313964844 463.3443603515625 L 111.16734313964844 464.8543701171875 L 107.43734741210938 464.8543701171875 L 107.43734741210938 472.41436767578125 C 107.43734741210938 473.18768310546875 107.62068176269531 473.7810363769531 107.98734283447266 474.1943664550781 C 108.35401153564453 474.6076965332031 108.85734558105469 474.8143615722656 109.49734497070312 474.8143615722656 ZM 119.24800109863281 476.41436767578125 C 117.34800720214844 476.41436767578125 115.84800720214844 475.8376770019531 114.74800109863281 474.6843566894531 C 113.65467071533203 473.5310363769531 113.10800170898438 471.9243469238281 113.10800170898438 469.8643493652344 C 113.10800170898438 467.7976989746094 113.61800384521484 466.15435791015625 114.63800048828125 464.9343566894531 C 115.65800476074219 463.71435546875 117.02467346191406 463.1043701171875 118.73800659179688 463.1043701171875 C 120.35133361816406 463.1043701171875 121.62467193603516 463.6343688964844 122.5580062866211 464.6943664550781 C 123.49800109863281 465.7543640136719 123.96800231933594 467.1510314941406 123.96800231933594 468.8843688964844 L 123.96800231933594 470.1143493652344 L 115.11800384521484 470.1143493652344 C 115.15800476074219 471.62103271484375 115.54133605957031 472.76434326171875 116.26800537109375 473.5443420410156 C 116.98800659179688 474.3310241699219 118.00466918945312 474.724365234375 119.31800079345703 474.724365234375 C 120.69800567626953 474.724365234375 122.06466674804688 474.4343566894531 123.41799926757812 473.8543701171875 L 123.41799926757812 475.5843505859375 C 122.73133850097656 475.8843688964844 122.08133697509766 476.0976867675781 121.46800231933594 476.224365234375 C 120.85466766357422 476.35101318359375 120.11466979980469 476.41436767578125 119.24800109863281 476.41436767578125 M 118.71800231933594 464.7343444824219 C 117.6846694946289 464.7343444824219 116.86133575439453 465.0710144042969 116.24800109863281 465.7443542480469 C 115.6346664428711 466.4176940917969 115.27467346191406 467.3476867675781 115.16800689697266 468.53436279296875 L 121.88800048828125 468.53436279296875 C 121.88800048828125 467.30767822265625 121.61133575439453 466.36767578125 121.0580062866211 465.71435546875 C 120.51133728027344 465.06103515625 119.73133850097656 464.7343444824219 118.71800231933594 464.7343444824219 ZM 133.13967895507812 463.1043701171875 C 133.7130126953125 463.1043701171875 134.22634887695312 463.1510314941406 134.6796875 463.2443542480469 L 134.40968322753906 465.0543518066406 C 133.8763427734375 464.9343566894531 133.40634155273438 464.8743591308594 132.9996795654297 464.8743591308594 C 131.95968627929688 464.8743591308594 131.07301330566406 465.2976989746094 130.3396759033203 466.14434814453125 C 129.5996856689453 466.9843444824219 129.22967529296875 468.03436279296875 129.22967529296875 469.2943420410156 L 129.22967529296875 476.1843566894531 L 127.27967834472656 476.1843566894531 L 127.27967834472656 463.3443603515625 L 128.88967895507812 463.3443603515625 L 129.10968017578125 465.724365234375 L 129.19967651367188 465.724365234375 C 129.6796875 464.8843688964844 130.25634765625 464.2377014160156 130.9296875 463.78436279296875 C 131.59634399414062 463.3310241699219 132.3330078125 463.1043701171875 133.13967895507812 463.1043701171875 ZM 141.2671661376953 463.3443603515625 L 143.35716247558594 463.3443603515625 L 146.1671600341797 470.66436767578125 C 146.7871551513672 472.3376770019531 147.17050170898438 473.5443420410156 147.31716918945312 474.28436279296875 L 147.40716552734375 474.28436279296875 C 147.51382446289062 473.8843688964844 147.72715759277344 473.204345703125 148.0471649169922 472.2443542480469 C 148.3738250732422 471.2776794433594 149.43382263183594 468.31103515625 151.22715759277344 463.3443603515625 L 153.31716918945312 463.3443603515625 L 147.7971649169922 477.96435546875 C 147.25048828125 479.4110107421875 146.61048889160156 480.43768310546875 145.87716674804688 481.0443420410156 C 145.15049743652344 481.6510314941406 144.2571563720703 481.954345703125 143.19715881347656 481.954345703125 C 142.59716796875 481.954345703125 142.010498046875 481.8876953125 141.43716430664062 481.7543640136719 L 141.43716430664062 480.1943664550781 C 141.86383056640625 480.2876892089844 142.3438262939453 480.3343505859375 142.87716674804688 480.3343505859375 C 144.2104949951172 480.3343505859375 145.16383361816406 479.5843505859375 145.73716735839844 478.0843505859375 L 146.44715881347656 476.2543640136719 L 141.2671661376953 463.3443603515625 ZM 166.48805236816406 469.7543640136719 C 166.48805236816406 471.8476867675781 165.96139526367188 473.48101806640625 164.90805053710938 474.65435791015625 C 163.84805297851562 475.82769775390625 162.39138793945312 476.41436767578125 160.53805541992188 476.41436767578125 C 159.3847198486328 476.41436767578125 158.36473083496094 476.147705078125 157.47805786132812 475.6143493652344 C 156.58473205566406 475.0743713378906 155.8947296142578 474.301025390625 155.40806579589844 473.2943420410156 C 154.9280548095703 472.2810363769531 154.6880645751953 471.10101318359375 154.6880645751953 469.7543640136719 C 154.6880645751953 467.6610107421875 155.21139526367188 466.0276794433594 156.258056640625 464.8543701171875 C 157.30471801757812 463.68768310546875 158.758056640625 463.1043701171875 160.61805725097656 463.1043701171875 C 162.41139221191406 463.1043701171875 163.8380584716797 463.7010192871094 164.89805603027344 464.89434814453125 C 165.9580535888672 466.0943603515625 166.48805236816406 467.71435546875 166.48805236816406 469.7543640136719 M 156.69805908203125 469.7543640136719 C 156.69805908203125 471.39434814453125 157.02806091308594 472.64434814453125 157.6880645751953 473.5043640136719 C 158.3413848876953 474.3643493652344 159.30471801757812 474.7943420410156 160.57806396484375 474.7943420410156 C 161.8513946533203 474.7943420410156 162.81805419921875 474.3643493652344 163.47805786132812 473.5043640136719 C 164.1380615234375 472.6510314941406 164.4680633544922 471.4010314941406 164.4680633544922 469.7543640136719 C 164.4680633544922 468.12103271484375 164.1380615234375 466.8810119628906 163.47805786132812 466.03436279296875 C 162.81805419921875 465.1810302734375 161.8447265625 464.7543640136719 160.5580596923828 464.7543640136719 C 159.28472900390625 464.7543640136719 158.32472229003906 465.1743469238281 157.6780548095703 466.01434326171875 C 157.02471923828125 466.8476867675781 156.69805908203125 468.0943603515625 156.69805908203125 469.7543640136719 ZM 171.7207489013672 463.3443603515625 L 171.7207489013672 471.6743469238281 C 171.7207489013672 472.72100830078125 171.96075439453125 473.50103759765625 172.4407501220703 474.01434326171875 C 172.91407775878906 474.53436279296875 173.65740966796875 474.7943420410156 174.67074584960938 474.7943420410156 C 176.0174102783203 474.7943420410156 177.00074768066406 474.4243469238281 177.62074279785156 473.6843566894531 C 178.24075317382812 472.9510192871094 178.55075073242188 471.7543640136719 178.55075073242188 470.0943603515625 L 178.55075073242188 463.3443603515625 L 180.50074768066406 463.3443603515625 L 180.50074768066406 476.1843566894531 L 178.8907470703125 476.1843566894531 L 178.61074829101562 474.46435546875 L 178.5107421875 474.46435546875 C 178.11074829101562 475.0976867675781 177.5574188232422 475.5810241699219 176.8507537841797 475.91436767578125 C 176.1440887451172 476.2476806640625 175.33741760253906 476.41436767578125 174.43075561523438 476.41436767578125 C 172.8640899658203 476.41436767578125 171.69407653808594 476.0443420410156 170.92074584960938 475.3043518066406 C 170.1407470703125 474.5643615722656 169.75074768066406 473.377685546875 169.75074768066406 471.7443542480469 L 169.75074768066406 463.3443603515625 L 171.7207489013672 463.3443603515625 ZM 190.47775268554688 463.1043701171875 C 191.05108642578125 463.1043701171875 191.56442260742188 463.1510314941406 192.01776123046875 463.2443542480469 L 191.7477569580078 465.0543518066406 C 191.21441650390625 464.9343566894531 190.74441528320312 464.8743591308594 190.33775329589844 464.8743591308594 C 189.29776000976562 464.8743591308594 188.4110870361328 465.2976989746094 187.67774963378906 466.14434814453125 C 186.93775939941406 466.9843444824219 186.5677490234375 468.03436279296875 186.5677490234375 469.2943420410156 L 186.5677490234375 476.1843566894531 L 184.6177520751953 476.1843566894531 L 184.6177520751953 463.3443603515625 L 186.22775268554688 463.3443603515625 L 186.44775390625 465.724365234375 L 186.53775024414062 465.724365234375 C 187.01776123046875 464.8843688964844 187.59442138671875 464.2377014160156 188.26776123046875 463.78436279296875 C 188.93441772460938 463.3310241699219 189.67108154296875 463.1043701171875 190.47775268554688 463.1043701171875 ZM 204.7952423095703 474.8143615722656 C 205.14190673828125 474.8143615722656 205.47523498535156 474.7876892089844 205.7952423095703 474.7343444824219 C 206.115234375 474.68768310546875 206.3685760498047 474.6343688964844 206.55523681640625 474.5743713378906 L 206.55523681640625 476.0643615722656 C 206.34190368652344 476.1710205078125 206.0319061279297 476.2543640136719 205.62522888183594 476.3143615722656 C 205.21189880371094 476.3810119628906 204.84190368652344 476.41436767578125 204.51522827148438 476.41436767578125 C 202.028564453125 476.41436767578125 200.7852325439453 475.1076965332031 200.7852325439453 472.4943542480469 L 200.7852325439453 464.8543701171875 L 198.9452362060547 464.8543701171875 L 198.9452362060547 463.91436767578125 L 200.7852325439453 463.1043701171875 L 201.60523986816406 460.3643493652344 L 202.7352294921875 460.3643493652344 L 202.7352294921875 463.3443603515625 L 206.46524047851562 463.3443603515625 L 206.46524047851562 464.8543701171875 L 202.7352294921875 464.8543701171875 L 202.7352294921875 472.41436767578125 C 202.7352294921875 473.18768310546875 202.91856384277344 473.7810363769531 203.2852325439453 474.1943664550781 C 203.6519012451172 474.6076965332031 204.15524291992188 474.8143615722656 204.7952423095703 474.8143615722656 ZM 214.5458984375 476.41436767578125 C 212.64588928222656 476.41436767578125 211.14588928222656 475.8376770019531 210.0458984375 474.6843566894531 C 208.9525604248047 473.5310363769531 208.40589904785156 471.9243469238281 208.40589904785156 469.8643493652344 C 208.40589904785156 467.7976989746094 208.9158935546875 466.15435791015625 209.93589782714844 464.9343566894531 C 210.9558868408203 463.71435546875 212.3225555419922 463.1043701171875 214.035888671875 463.1043701171875 C 215.64923095703125 463.1043701171875 216.9225616455078 463.6343688964844 217.85589599609375 464.6943664550781 C 218.7958984375 465.7543640136719 219.26589965820312 467.1510314941406 219.26589965820312 468.8843688964844 L 219.26589965820312 470.1143493652344 L 210.4158935546875 470.1143493652344 C 210.4558868408203 471.62103271484375 210.8392333984375 472.76434326171875 211.56588745117188 473.5443420410156 C 212.285888671875 474.3310241699219 213.3025665283203 474.724365234375 214.6158905029297 474.724365234375 C 215.9958953857422 474.724365234375 217.36256408691406 474.4343566894531 218.7158966064453 473.8543701171875 L 218.7158966064453 475.5843505859375 C 218.0292205810547 475.8843688964844 217.3792266845703 476.0976867675781 216.76589965820312 476.224365234375 C 216.15255737304688 476.35101318359375 215.41256713867188 476.41436767578125 214.5458984375 476.41436767578125 M 214.01589965820312 464.7343444824219 C 212.98255920410156 464.7343444824219 212.1592254638672 465.0710144042969 211.5458984375 465.7443542480469 C 210.93255615234375 466.4176940917969 210.5725555419922 467.3476867675781 210.4658966064453 468.53436279296875 L 217.18589782714844 468.53436279296875 C 217.18589782714844 467.30767822265625 216.9092254638672 466.36767578125 216.35589599609375 465.71435546875 C 215.80921936035156 465.06103515625 215.0292205810547 464.7343444824219 214.01589965820312 464.7343444824219 ZM 225.6775665283203 469.6143493652344 L 221.2075653076172 463.3443603515625 L 223.4275665283203 463.3443603515625 L 226.80755615234375 468.26434326171875 L 230.18756103515625 463.3443603515625 L 232.3775634765625 463.3443603515625 L 227.90756225585938 469.6143493652344 L 232.60755920410156 476.1843566894531 L 230.40756225585938 476.1843566894531 L 226.80755615234375 470.9843444824219 L 223.1775665283203 476.1843566894531 L 220.97756958007812 476.1843566894531 L 225.6775665283203 469.6143493652344 ZM 239.298828125 474.8143615722656 C 239.64549255371094 474.8143615722656 239.97882080078125 474.7876892089844 240.298828125 474.7343444824219 C 240.6188201904297 474.68768310546875 240.87216186523438 474.6343688964844 241.05882263183594 474.5743713378906 L 241.05882263183594 476.0643615722656 C 240.84548950195312 476.1710205078125 240.53549194335938 476.2543640136719 240.12881469726562 476.3143615722656 C 239.71548461914062 476.3810119628906 239.34548950195312 476.41436767578125 239.01881408691406 476.41436767578125 C 236.5321502685547 476.41436767578125 235.288818359375 475.1076965332031 235.288818359375 472.4943542480469 L 235.288818359375 464.8543701171875 L 233.44882202148438 464.8543701171875 L 233.44882202148438 463.91436767578125 L 235.288818359375 463.1043701171875 L 236.10882568359375 460.3643493652344 L 237.2388153076172 460.3643493652344 L 237.2388153076172 463.3443603515625 L 240.9688262939453 463.3443603515625 L 240.9688262939453 464.8543701171875 L 237.2388153076172 464.8543701171875 L 237.2388153076172 472.41436767578125 C 237.2388153076172 473.18768310546875 237.42214965820312 473.7810363769531 237.788818359375 474.1943664550781 C 238.15548706054688 474.6076965332031 238.65882873535156 474.8143615722656 239.298828125 474.8143615722656 ZM 258.6423645019531 476.1843566894531 L 258.6423645019531 467.8743591308594 C 258.6423645019531 466.82769775390625 258.40570068359375 466.0476989746094 257.932373046875 465.53436279296875 C 257.4523620605469 465.01434326171875 256.7057189941406 464.7543640136719 255.69236755371094 464.7543640136719 C 254.3390350341797 464.7543640136719 253.3523712158203 465.1243591308594 252.7323760986328 465.8643493652344 C 252.1123809814453 466.5976867675781 251.8023681640625 467.801025390625 251.8023681640625 469.474365234375 L 251.8023681640625 476.1843566894531 L 249.8523712158203 476.1843566894531 L 249.8523712158203 457.954345703125 L 251.8023681640625 457.954345703125 L 251.8023681640625 463.474365234375 C 251.8023681640625 464.1343688964844 251.76904296875 464.6843566894531 251.70237731933594 465.1243591308594 L 251.82237243652344 465.1243591308594 C 252.20904541015625 464.5043640136719 252.75570678710938 464.0177001953125 253.46237182617188 463.66436767578125 C 254.16903686523438 463.31103515625 254.9757080078125 463.1343688964844 255.8823699951172 463.1343688964844 C 257.44903564453125 463.1343688964844 258.6257019042969 463.5043640136719 259.4123840332031 464.2443542480469 C 260.19903564453125 464.99102783203125 260.5923767089844 466.1777038574219 260.5923767089844 467.8043518066406 L 260.5923767089844 476.1843566894531 L 258.6423645019531 476.1843566894531 ZM 270.0093688964844 476.41436767578125 C 268.109375 476.41436767578125 266.609375 475.8376770019531 265.5093688964844 474.6843566894531 C 264.4160461425781 473.5310363769531 263.869384765625 471.9243469238281 263.869384765625 469.8643493652344 C 263.869384765625 467.7976989746094 264.3793640136719 466.15435791015625 265.3993835449219 464.9343566894531 C 266.41937255859375 463.71435546875 267.7860412597656 463.1043701171875 269.4993896484375 463.1043701171875 C 271.1127014160156 463.1043701171875 272.38604736328125 463.6343688964844 273.3193664550781 464.6943664550781 C 274.2593688964844 465.7543640136719 274.7293701171875 467.1510314941406 274.7293701171875 468.8843688964844 L 274.7293701171875 470.1143493652344 L 265.8793640136719 470.1143493652344 C 265.91937255859375 471.62103271484375 266.3027038574219 472.76434326171875 267.0293884277344 473.5443420410156 C 267.7493896484375 474.3310241699219 268.76605224609375 474.724365234375 270.0793762207031 474.724365234375 C 271.4593811035156 474.724365234375 272.8260498046875 474.4343566894531 274.17938232421875 473.8543701171875 L 274.17938232421875 475.5843505859375 C 273.4927062988281 475.8843688964844 272.84271240234375 476.0976867675781 272.2293701171875 476.224365234375 C 271.6160583496094 476.35101318359375 270.87603759765625 476.41436767578125 270.0093688964844 476.41436767578125 M 269.4793701171875 464.7343444824219 C 268.446044921875 464.7343444824219 267.6227111816406 465.0710144042969 267.0093688964844 465.7443542480469 C 266.39605712890625 466.4176940917969 266.0360412597656 467.3476867675781 265.92938232421875 468.53436279296875 L 272.6493835449219 468.53436279296875 C 272.6493835449219 467.30767822265625 272.3727111816406 466.36767578125 271.8193664550781 465.71435546875 C 271.272705078125 465.06103515625 270.4927062988281 464.7343444824219 269.4793701171875 464.7343444824219 ZM 283.90106201171875 463.1043701171875 C 284.4743957519531 463.1043701171875 284.9877014160156 463.1510314941406 285.4410400390625 463.2443542480469 L 285.1710510253906 465.0543518066406 C 284.6377258300781 464.9343566894531 284.167724609375 464.8743591308594 283.76104736328125 464.8743591308594 C 282.7210388183594 464.8743591308594 281.8343811035156 465.2976989746094 281.1010437011719 466.14434814453125 C 280.3610534667969 466.9843444824219 279.9910583496094 468.03436279296875 279.9910583496094 469.2943420410156 L 279.9910583496094 476.1843566894531 L 278.0410461425781 476.1843566894531 L 278.0410461425781 463.3443603515625 L 279.65106201171875 463.3443603515625 L 279.8710632324219 465.724365234375 L 279.9610595703125 465.724365234375 C 280.4410400390625 464.8843688964844 281.0177001953125 464.2377014160156 281.6910400390625 463.78436279296875 C 282.35772705078125 463.3310241699219 283.0943908691406 463.1043701171875 283.90106201171875 463.1043701171875 ZM 293.265625 476.41436767578125 C 291.3656311035156 476.41436767578125 289.8656311035156 475.8376770019531 288.765625 474.6843566894531 C 287.67230224609375 473.5310363769531 287.1256408691406 471.9243469238281 287.1256408691406 469.8643493652344 C 287.1256408691406 467.7976989746094 287.6356201171875 466.15435791015625 288.6556396484375 464.9343566894531 C 289.6756286621094 463.71435546875 291.04229736328125 463.1043701171875 292.7556457519531 463.1043701171875 C 294.36895751953125 463.1043701171875 295.6423034667969 463.6343688964844 296.57562255859375 464.6943664550781 C 297.515625 465.7543640136719 297.9856262207031 467.1510314941406 297.9856262207031 468.8843688964844 L 297.9856262207031 470.1143493652344 L 289.1356201171875 470.1143493652344 C 289.1756286621094 471.62103271484375 289.5589599609375 472.76434326171875 290.28564453125 473.5443420410156 C 291.0056457519531 474.3310241699219 292.0223083496094 474.724365234375 293.33563232421875 474.724365234375 C 294.71563720703125 474.724365234375 296.0823059082031 474.4343566894531 297.4356384277344 473.8543701171875 L 297.4356384277344 475.5843505859375 C 296.74896240234375 475.8843688964844 296.0989685058594 476.0976867675781 295.4856262207031 476.224365234375 C 294.872314453125 476.35101318359375 294.1322937011719 476.41436767578125 293.265625 476.41436767578125 M 292.7356262207031 464.7343444824219 C 291.7023010253906 464.7343444824219 290.87896728515625 465.0710144042969 290.265625 465.7443542480469 C 289.6523132324219 466.4176940917969 289.29229736328125 467.3476867675781 289.1856384277344 468.53436279296875 L 295.9056396484375 468.53436279296875 C 295.9056396484375 467.30767822265625 295.62896728515625 466.36767578125 295.07562255859375 465.71435546875 C 294.5289611816406 465.06103515625 293.74896240234375 464.7343444824219 292.7356262207031 464.7343444824219 Z" transform="matrix(1, 0, 0, 1, 0, 0)" style="fill: rgb(51, 51, 51); white-space: pre; color: rgb(51, 51, 51);"/></svg>